<svg width="44" height="41" viewBox="0 0 44 41" fill="none" xmlns="http://www.w3.org/2000/svg">
<path d="M14.8988 19.2764C18.1704 19.5089 21.4657 18.1493 21.607 14.5927C21.6716 11.2669 21.5694 5.74184 21.7403 0.094779C21.7405 0.0939759 21.7403 0.094779 21.7403 0.094779C18.5688 -0.267091 14.71 0.150802 14.682 5.99962C14.6739 7.61817 15.0923 8.43953 14.8988 19.2764Z" fill="#1A1D21"/>
<path d="M14.8987 19.2765C4.5065 15.9282 0.974705 6.86749 2.63814 1.22475C2.63814 1.22475 0.733734 5.39843 0.187199 9.77221C-0.141376 12.3994 2.47587 16.9402 5.87283 18.0099C10.3101 19.4073 14.8987 19.2765 14.8987 19.2765Z" stroke="#1A1D21" stroke-width="0.318521" stroke-miterlimit="10"/>
<path d="M14.6081 19.1931C6.01931 14.3988 3.46133 6.92006 2.34754 1.14129" stroke="#1A1D21" stroke-width="0.318521" stroke-miterlimit="10"/>
<path d="M14.6082 19.193C6.01465 18.9497 -1.78847 12.5378 2.34773 1.14124" stroke="#1A1D21" stroke-width="0.318521" stroke-miterlimit="10"/>
<path d="M19.7799 29.0331C19.9895 25.8042 18.5866 22.5395 14.9835 22.3719C11.6149 22.2819 6.02022 22.3392 0.299867 22.1258C0.299052 22.1256 0.299867 22.1258 0.299867 22.1258C-0.0415849 25.2547 0.412083 29.0686 6.33564 29.1424C7.97487 29.1632 8.80339 28.7564 19.7799 29.0331Z" fill="#1A1D21"/>
<path d="M28.5825 21.7236C25.3108 21.4911 22.0156 22.8507 21.8743 26.4073C21.8097 29.7331 21.9119 35.2582 21.7409 40.9052C21.7409 40.9052 21.7407 40.906 21.7409 40.9052C24.9124 41.2671 28.7712 40.8492 28.7993 35.0004C28.8074 33.3818 28.3889 32.5605 28.5825 21.7236Z" fill="#1A1D21"/>
<path d="M28.5821 21.7235C38.9742 25.0719 42.506 34.1326 40.8426 39.7753C40.8426 39.7753 42.747 35.6016 43.2935 31.2279C43.6221 28.6007 41.0049 24.0598 37.6079 22.9902C33.1709 21.5919 28.5821 21.7235 28.5821 21.7235Z" stroke="#1A1D21" stroke-width="0.318521" stroke-miterlimit="10"/>
<path d="M28.5821 21.7235C37.1709 26.5177 39.7289 33.9965 40.8427 39.7753" stroke="#1A1D21" stroke-width="0.318521" stroke-miterlimit="10"/>
<path d="M21.266 14.4948C21.0564 17.7237 22.4593 20.9884 26.0624 21.156C29.431 21.246 35.0257 21.1887 40.746 21.4021C40.746 21.4021 40.7468 21.4023 40.746 21.4021C41.0875 18.2732 40.6338 14.4593 34.7102 14.3855C33.071 14.3647 32.2425 14.7715 21.266 14.4948Z" fill="#1A1D21"/>
</svg>
