<svg width="75" height="75" viewBox="0 0 75 75" fill="none" xmlns="http://www.w3.org/2000/svg">
<path d="M29.4303 34.0811C33.5625 34.3747 37.7246 32.6576 37.903 28.1653C37.9846 23.9647 37.8555 16.9864 38.0714 9.85393C38.0717 9.85291 38.0714 9.85393 38.0714 9.85393C34.0657 9.39687 29.1919 9.92469 29.1565 17.312C29.1462 19.3563 29.6748 20.3937 29.4303 34.0811Z" fill="#FFCA5F"/>
<path d="M29.4304 34.0812C16.3047 29.8521 11.8439 18.4081 13.9449 11.2811C13.9449 11.2811 11.5395 16.5526 10.8493 22.0769C10.4342 25.3951 13.7399 31.1303 18.0304 32.4814C23.6348 34.2464 29.4304 34.0812 29.4304 34.0812Z" stroke="#FFCA5F" stroke-width="0.318521" stroke-miterlimit="10"/>
<path d="M29.0634 33.9758C18.2154 27.9205 14.9846 18.4745 13.5778 11.1757" stroke="#FFCA5F" stroke-width="0.318521" stroke-miterlimit="10"/>
<path d="M29.0634 33.9758C18.2093 33.6686 8.35366 25.57 13.5778 11.1757" stroke="#FFCA5F" stroke-width="0.318521" stroke-miterlimit="10"/>
<path d="M35.5951 46.4041C35.8598 42.3259 34.0879 38.2024 29.5371 37.9908C25.2823 37.8771 18.2161 37.9494 10.9911 37.68C10.99 37.6797 10.9911 37.68 10.9911 37.68C10.5598 41.6319 11.1328 46.4489 18.6145 46.5422C20.6849 46.5684 21.7313 46.0547 35.5951 46.4041Z" fill="#FFCA5F"/>
<path d="M46.7129 37.1719C42.5807 36.8783 38.4187 38.5955 38.2402 43.0877C38.1586 47.2883 38.2877 54.2666 38.0718 61.3991C38.0718 61.3991 38.0715 61.4001 38.0718 61.3991C42.0775 61.8561 46.9514 61.3283 46.9868 53.941C46.997 51.8968 46.4684 50.8593 46.7129 37.1719Z" fill="#FFCA5F"/>
<path d="M46.7128 37.1718C59.8385 41.4009 64.2993 52.845 62.1983 59.9719C62.1983 59.9719 64.6036 54.7004 65.2939 49.1761C65.7089 45.8579 62.4033 40.1227 58.1128 38.7717C52.5086 37.0056 46.7128 37.1718 46.7128 37.1718Z" stroke="#FFCA5F" stroke-width="0.318521" stroke-miterlimit="10"/>
<path d="M46.7128 37.1719C57.5607 43.2272 60.7915 52.6732 62.1983 59.972" stroke="#FFCA5F" stroke-width="0.318521" stroke-miterlimit="10"/>
<path d="M37.4725 28.0417C37.2078 32.1199 38.9796 36.2434 43.5305 36.4551C47.7852 36.5688 54.8515 36.4964 62.0765 36.7659C62.0765 36.7659 62.0775 36.7662 62.0765 36.7659C62.5078 32.814 61.9348 27.9969 54.4531 27.9037C52.3827 27.8774 51.3362 28.3912 37.4725 28.0417Z" fill="#FFCA5F"/>
</svg>
